<svg width="93" height="93" viewBox="0 0 93 93" fill="none" xmlns="http://www.w3.org/2000/svg">
<rect x="12" y="12" width="69" height="69" rx="8" fill="#D8473A"/>
<path fill-rule="evenodd" clip-rule="evenodd" d="M66.0928 24.9258C67.03 24.9258 67.7166 25.8082 67.4862 26.7167L63.1414 43.8484C62.9797 44.486 62.4058 44.9325 61.748 44.9325H37.6534C36.7161 44.9325 36.0296 44.0501 36.26 43.1416L40.6047 26.0099C40.7664 25.3723 41.3403 24.9258 41.9981 24.9258L66.0928 24.9258ZM66.0928 68.0746C67.03 68.0746 67.7166 67.1922 67.4862 66.2838L63.1414 49.1521C62.9797 48.5144 62.4058 48.0679 61.748 48.0679H37.6534C36.7161 48.0679 36.0296 48.9504 36.26 49.8588L40.6047 66.9905C40.7664 67.6281 41.3403 68.0746 41.9981 68.0746H66.0928ZM33.8636 26.3759C33.8636 25.582 33.22 24.9384 32.4261 24.9384H27.8125C27.0186 24.9384 26.375 25.582 26.375 26.3759L26.375 66.6259C26.375 67.4198 27.0186 68.0634 27.8125 68.0634H32.4261C33.22 68.0634 33.8636 67.4198 33.8636 66.6259L33.8636 26.3759Z" fill="white"/>
</svg>
